<svg preserveAspectRatio="none" width="288" height="216" viewBox="0 0 288 216" fill="none" xmlns="http://www.w3.org/2000/svg">
  <g id="Perch Mark v5">
    <path d="M61.2 108C79.2 72 126 57.6 169.2 61.2C201.6 64.8 226.8 79.2 237.6 97.2C243 106.2 243 113.4 237.6 122.4C223.2 144 183.6 154.8 147.6 151.2C108 147.6 75.6 133.2 61.2 108Z" stroke="#000000" stroke-width="5.4" stroke-linecap="round" stroke-linejoin="round"/>
    <circle cx="212.4" cy="95.4" r="5.76" fill="#4A9BA8"/>
    <path d="M237.6 109.8C230.4 117 223.2 118.8 216 115.2" stroke="#000000" stroke-width="4.05" stroke-linecap="round"/>
    <path d="M133.2 59.4L129.6 32.4" stroke="#000000" stroke-width="4.86" stroke-linecap="round"/>
    <path d="M147.6 57.6V25.2" stroke="#000000" stroke-width="4.86" stroke-linecap="round"/>
    <path d="M162 59.4L163.8 32.4" stroke="#000000" stroke-width="4.86" stroke-linecap="round"/>
    <path d="M176.4 63L180 39.6" stroke="#000000" stroke-width="4.86" stroke-linecap="round"/>
    <path d="M129.6 32.4L140.4 28.8L147.6 25.2L156.6 28.8L163.8 32.4L172.8 36L180 39.6" stroke="#000000" stroke-width="2.97" stroke-linecap="round" stroke-linejoin="round"/>
    <path d="M61.2 108C54 100.8 39.6 86.4 28.8 75.6" stroke="#000000" stroke-width="5.4" stroke-linecap="round"/>
    <path d="M61.2 108C54 115.2 39.6 129.6 28.8 140.4" stroke="#000000" stroke-width="5.4" stroke-linecap="round"/>
    <path d="M28.8 75.6C23.4 90 23.4 126 28.8 140.4" stroke="#000000" stroke-width="3.78" stroke-linecap="round"/>
    <path d="M194.4 79.2C187.2 100.8 187.2 115.2 194.4 129.6" stroke="#000000" stroke-width="3.51" stroke-linecap="round" opacity="0.8"/>
    <path d="M198 118.8C187.2 133.2 172.8 136.8 165.6 129.6" stroke="#000000" stroke-width="4.32" stroke-linecap="round"/>
  </g>
</svg>
