<svg xmlns="http://www.w3.org/2000/svg" width="900" height="620" viewBox="0 0 900 620" fill="none">
  <rect width="900" height="620" rx="32" fill="#FAFAFA"/>
  <text x="450" y="74" fill="#202020" font-family="Inter, Arial, sans-serif" font-size="34" font-weight="700" text-anchor="middle">Minimum Clear Space</text>
  <text x="450" y="122" fill="#8A8A8A" font-family="JetBrains Mono, monospace" font-size="20" letter-spacing="0.08em" text-anchor="middle">1× eye diameter on every side</text>
  <rect x="170" y="170" width="560" height="268" stroke="#999999" stroke-width="2.5" stroke-dasharray="10 8"/>
  <rect x="170" y="170" width="32" height="268" fill="#4A9BA8" opacity="0.08"/>
  <rect x="698" y="170" width="32" height="268" fill="#4A9BA8" opacity="0.08"/>
  <rect x="170" y="170" width="560" height="32" fill="#4A9BA8" opacity="0.08"/>
  <rect x="170" y="406" width="560" height="32" fill="#4A9BA8" opacity="0.08"/>
  <text x="450" y="154" fill="#8A8A8A" font-family="JetBrains Mono, monospace" font-size="18" letter-spacing="0.08em" text-anchor="middle">1× eye diameter</text>
  <g transform="translate(74 304) rotate(-90)">
    <text fill="#8A8A8A" font-family="JetBrains Mono, monospace" font-size="18" letter-spacing="0.08em" text-anchor="middle">1× eye diameter</text>
  </g>
  <g transform="translate(218 206) scale(1.7)">
    <path d="M28.9 51C37.4 34 59.5 27.2 79.9 28.9C95.2 30.6 107.1 37.4 112.2 45.9C114.75 50.15 114.75 53.55 112.2 57.8C105.4 68 86.7 73.1 69.7 71.4C51 69.7 35.7 62.9 28.9 51Z" stroke="#000000" stroke-width="2.55" stroke-linecap="round" stroke-linejoin="round"/>
    <circle cx="100.3" cy="45.05" r="2.72" fill="#4A9BA8"/>
    <path d="M112.2 51.85C108.8 55.25 105.4 56.1 102 54.4" stroke="#000000" stroke-width="1.9125" stroke-linecap="round"/>
    <path d="M62.9 28.05L61.2 15.3" stroke="#000000" stroke-width="2.295" stroke-linecap="round"/>
    <path d="M69.7 27.2V11.9" stroke="#000000" stroke-width="2.295" stroke-linecap="round"/>
    <path d="M76.5 28.05L77.35 15.3" stroke="#000000" stroke-width="2.295" stroke-linecap="round"/>
    <path d="M83.3 29.75L85 18.7" stroke="#000000" stroke-width="2.295" stroke-linecap="round"/>
    <path d="M61.2 15.3L66.3 13.6L69.7 11.9L73.95 13.6L77.35 15.3L81.6 17L85 18.7" stroke="#000000" stroke-width="1.4025" stroke-linecap="round" stroke-linejoin="round"/>
    <path d="M28.9 51C25.5 47.6 18.7 40.8 13.6 35.7" stroke="#000000" stroke-width="2.55" stroke-linecap="round"/>
    <path d="M28.9 51C25.5 54.4 18.7 61.2 13.6 66.3" stroke="#000000" stroke-width="2.55" stroke-linecap="round"/>
    <path d="M13.6 35.7C11.05 42.5 11.05 59.5 13.6 66.3" stroke="#000000" stroke-width="1.785" stroke-linecap="round"/>
    <path d="M91.8 37.4C88.4 47.6 88.4 54.4 91.8 61.2" stroke="#000000" stroke-width="1.6575" stroke-linecap="round" opacity="0.8"/>
    <path d="M93.5 56.1C88.4 62.9 81.6 64.6 78.2 61.2" stroke="#000000" stroke-width="2.04" stroke-linecap="round"/>
  </g>
  <text x="450" y="530" fill="#5F6368" font-family="Inter, Arial, sans-serif" font-size="24" font-weight="400" text-anchor="middle">Maintain one eye diameter of clear space around the mark on all sides.</text>
</svg>
