<svg xmlns="http://www.w3.org/2000/svg" width="536" height="162" viewBox="0 0 536 162" fill="none">
  <rect width="536" height="162" rx="10" fill="#171717"/>
  <g transform="translate(40 30)">
    <path d="M28.9 51C37.4 34 59.5 27.2 79.9 28.9C95.2 30.6 107.1 37.4 112.2 45.9C114.75 50.15 114.75 53.55 112.2 57.8C105.4 68 86.7 73.1 69.7 71.4C51 69.7 35.7 62.9 28.9 51Z" stroke="#4A9BA8" stroke-width="2.55" stroke-linecap="round" stroke-linejoin="round"/>
    <circle cx="100.3" cy="45.05" r="2.72" fill="#4A9BA8"/>
    <path d="M112.2 51.85C108.8 55.25 105.4 56.1 102 54.4" stroke="#4A9BA8" stroke-width="1.9125" stroke-linecap="round"/>
    <path d="M62.9 28.05L61.2 15.3" stroke="#4A9BA8" stroke-width="2.295" stroke-linecap="round"/>
    <path d="M69.7 27.2V11.9" stroke="#4A9BA8" stroke-width="2.295" stroke-linecap="round"/>
    <path d="M76.5 28.05L77.35 15.3" stroke="#4A9BA8" stroke-width="2.295" stroke-linecap="round"/>
    <path d="M83.3 29.75L85 18.7" stroke="#4A9BA8" stroke-width="2.295" stroke-linecap="round"/>
    <path d="M61.2 15.3L66.3 13.6L69.7 11.9L73.95 13.6L77.35 15.3L81.6 17L85 18.7" stroke="#4A9BA8" stroke-width="1.4025" stroke-linecap="round" stroke-linejoin="round"/>
    <path d="M28.9 51C25.5 47.6 18.7 40.8 13.6 35.7" stroke="#4A9BA8" stroke-width="2.55" stroke-linecap="round"/>
    <path d="M28.9 51C25.5 54.4 18.7 61.2 13.6 66.3" stroke="#4A9BA8" stroke-width="2.55" stroke-linecap="round"/>
    <path d="M13.6 35.7C11.05 42.5 11.05 59.5 13.6 66.3" stroke="#4A9BA8" stroke-width="1.785" stroke-linecap="round"/>
    <path d="M91.8 37.4C88.4 47.6 88.4 54.4 91.8 61.2" stroke="#4A9BA8" stroke-width="1.6575" stroke-linecap="round" opacity="0.8"/>
    <path d="M93.5 56.1C88.4 62.9 81.6 64.6 78.2 61.2" stroke="#4A9BA8" stroke-width="2.04" stroke-linecap="round"/>
  </g>
  <text x="193" y="97" fill="#FFFFFF" font-family="Inter, Arial, sans-serif" font-size="60" font-weight="700" letter-spacing="-0.04em">
    Perch<tspan fill="#4A9BA8">.</tspan>
  </text>
  <rect x="360" y="63" width="1" height="36" fill="#404040"/>
  <text fill="#737373" font-family="Inter, Arial, sans-serif" font-size="10" letter-spacing="0.22em">
    <tspan x="384" y="79">INSTRUMENT BY WAKE</tspan>
    <tspan x="384" y="95">BUILT BY CANDLEFISH</tspan>
  </text>
</svg>
