<svg xmlns="http://www.w3.org/2000/svg" width="200" height="80" viewBox="0 0 200 80" fill="none">
  <!-- P -->
  <path d="M20 65 C20 65 18 58 18 50 C18 40 20 28 22 20 C24 14 26 12 28 12 C32 12 36 16 36 22 C36 28 34 32 30 34 C26 36 22 35 20 34 C18 33 18 38 18 42"
    stroke="#111111" stroke-width="2.8" stroke-linecap="round" stroke-linejoin="round" fill="none"/>
  <!-- J -->
  <path d="M52 16 C52 16 52 18 52 24 C52 36 52 48 50 56 C48 62 44 66 40 64 C37 62 36 58 38 54"
    stroke="#111111" stroke-width="2.8" stroke-linecap="round" stroke-linejoin="round" fill="none"/>
  <!-- J crossbar dot -->
  <circle cx="52" cy="10" r="1.8" fill="#111111"/>
  <!-- S -->
  <path d="M68 22 C72 18 78 16 82 18 C86 20 86 26 82 30 C78 34 72 36 70 40 C68 44 68 50 72 54 C76 58 82 58 86 54"
    stroke="#111111" stroke-width="2.8" stroke-linecap="round" stroke-linejoin="round" fill="none"/>
  <!-- Underline flourish -->
  <path d="M16 68 C30 70 60 72 90 66 C100 64 105 62 110 64"
    stroke="#111111" stroke-width="1.8" stroke-linecap="round" fill="none"/>
</svg>
