<svg xmlns="http://www.w3.org/2000/svg" width="720" height="420" viewBox="0 0 720 420">
  <defs>
    <linearGradient id="cashWash" x1="0" y1="0" x2="1" y2="1">
      <stop offset="0%" stop-color="#101313"/>
      <stop offset="100%" stop-color="#060808"/>
    </linearGradient>
  </defs>

  <rect width="720" height="420" rx="28" fill="#060808"/>
  <rect x="20" y="20" width="680" height="380" rx="24" fill="url(#cashWash)" stroke="#202020" stroke-width="1.5"/>
  <rect x="20" y="20" width="14" height="380" rx="7" fill="#357580"/>

  <text x="56" y="68" font-family="JetBrains Mono, monospace" font-size="12" font-weight="600" letter-spacing="2.8" fill="#5EC4C9">CASH FLOW READ</text>
  <text x="56" y="124" font-family="Inter, system-ui, sans-serif" font-size="34" font-weight="700" fill="#FFFFFF">You have 41 operating days.</text>
  <text x="56" y="156" font-family="Inter, system-ui, sans-serif" font-size="18" font-weight="300" fill="#D4D4D4">Nothing is on fire yet. The pinch is visible if you look forward.</text>

  <path d="M 56 228 C 124 214 168 186 232 186 C 296 186 318 220 384 220 C 454 220 494 176 560 176 C 592 176 624 184 664 196" fill="none" stroke="#5EC4C9" stroke-width="4" stroke-linecap="round"/>
  <circle cx="560" cy="176" r="7" fill="#4A9BA8"/>
  <circle cx="664" cy="196" r="5" fill="#A3A3A3"/>

  <rect x="56" y="240" width="180" height="78" rx="18" fill="#101415" stroke="#232829"/>
  <rect x="248" y="240" width="180" height="78" rx="18" fill="#101415" stroke="#232829"/>
  <rect x="440" y="240" width="224" height="78" rx="18" fill="#101415" stroke="#232829"/>

  <text x="78" y="268" font-family="JetBrains Mono, monospace" font-size="11" fill="#8A8A8A">RUNWAY</text>
  <text x="78" y="300" font-family="Inter, system-ui, sans-serif" font-size="24" font-weight="700" fill="#FFFFFF">41 Days</text>

  <text x="270" y="268" font-family="JetBrains Mono, monospace" font-size="11" fill="#8A8A8A">AR AGING</text>
  <text x="270" y="300" font-family="Inter, system-ui, sans-serif" font-size="24" font-weight="700" fill="#FFFFFF">Clean to 45</text>

  <text x="462" y="268" font-family="JetBrains Mono, monospace" font-size="11" fill="#8A8A8A">WATCHPOINT</text>
  <text x="462" y="300" font-family="Inter, system-ui, sans-serif" font-size="24" font-weight="700" fill="#FFFFFF">May 28 / $85K</text>

  <rect x="56" y="334" width="608" height="44" rx="14" fill="#101415" stroke="#232829"/>
  <text x="78" y="362" font-family="Inter, system-ui, sans-serif" font-size="18" font-weight="300" fill="#FFFFFF">Equipment lease reset and Q2 taxes land in the same week.</text>

  <text x="56" y="392" font-family="JetBrains Mono, monospace" font-size="11" font-weight="500" letter-spacing="1.8" fill="#666666">PERCH. / FORWARD LOOKING / OPERATOR READABLE</text>
</svg>
